<svg version="1" xmlns="http://www.w3.org/2000/svg" width="1365.333" height="1365.333" viewBox="0 0 1024.000000 1024.000000"><path d="M534 114.6c-59.3 2.7-102.3 8.2-141.5 18-96.1 24.1-152.3 72-166.4 141.9-6.6 33-5 68.1 4.6 97.4 1.3 4.2 5.3 13.5 8.8 20.7 9.1 18.7 17 26.9 30.4 31.5 24.9 8.6 57.9-4.6 70.2-28.1 2-3.8 2.4-6 2.4-14v-9.5l-7.2-14.5c-4-8-8.5-18.6-10-23.5-2.4-8.1-2.7-10.6-2.7-25-.1-15.1.1-16.5 2.7-24 14.5-40.9 60.3-61.8 152.7-69.5 22.1-1.8 68-2.8 95.2-1.9 23.6.7 67.8 3.6 68.7 4.5.2.2-1.2 14.5-3.3 31.7-2 17.1-6.6 55.7-10.1 85.6-6.6 55.1-14 110-15.3 113.5-.6 1.3-6.2 3.9-18.2 8.6-81.7 31.4-148.8 69.2-204 115-15.7 13-42.3 39.5-52.3 52-37.4 47.1-55.4 99.3-53.4 155 .9 24.5 4.6 39.8 14.4 59.5C306 852 313.1 862 323 872.1c22.2 22.5 50.7 35.1 88.4 38.8 79.4 7.9 146.7-29.2 200-110.4 52.3-79.5 92.5-202.6 120-367 5-30.1 22.4-152.2 25.9-182.5l2.3-19.5 6.9-.8c19.5-2.1 29.4-10.3 35.1-29.2 1.3-4.4 1.8-9.4 1.9-18.5 0-12.6 0-12.6-3.8-20.2-8.7-17.7-24.7-25.6-70.8-34.7-27.6-5.5-53.4-9-87.1-11.6-18.1-1.5-90.1-2.7-107.8-1.9zm60 445c-12.3 59.2-27.8 113.3-43.4 151.4-24 58.5-60.4 101.2-93.6 109.6-7.5 1.9-20.3 2.1-27.4.5-17.4-4.1-29.9-17.4-34.7-37.1-2.3-9.3-1.8-39.2.9-51.7 15.3-70.9 76.3-130.4 185.2-180.9 8.5-4 15.6-7.1 15.8-7 .1.2-1.1 7-2.8 15.2z"/></svg>