<svg version="1" xmlns="http://www.w3.org/2000/svg" width="1365.333" height="1365.333" viewBox="0 0 1024.000000 1024.000000"><path d="M187.4 105.9c-.2.2-.4 144.8-.4 321.3V748h45V468h159l2.4 3.7c1.3 2.1 13.3 22.2 26.6 44.8 13.4 22.5 30.7 51.8 38.5 65 7.8 13.2 19.4 32.8 25.7 43.5 6.4 10.7 18.9 31.9 27.8 47 9 15.1 22.1 37.3 29.1 49.2 7.1 12 13.6 22.9 14.5 24.3l1.6 2.5h26.4c14.5 0 26.4-.2 26.4-.5s-8.4-14.6-18.6-31.7c-10.3-17.2-25.5-42.8-33.9-56.8-8.3-14-29.1-48.9-46.2-77.5-17-28.6-40.9-68.6-53-89l-22-36.9 12.6-4.2c59.5-19.8 97-54.2 115-105.8 13.2-37.7 12.8-92.2-.9-131.1-17.3-48.8-56.2-81.3-116.1-96.9-25.6-6.7-51.7-10.3-81.9-11.2-21.9-.7-177-1.1-177.6-.5zm201.1 42.4c69.3 8.9 106.4 30.3 124.8 72 8.7 19.8 12.3 42.2 11.4 72.4-.8 26.6-4.7 44.4-13.9 62.8-17.6 34.9-52.3 58.9-99.3 68.5-22.4 4.6-30.8 5-107.2 5H232V145.8l71.8.5c59.2.3 74 .7 84.7 2z"/><path d="M714.3 105.8l-2.3.3v308.7c0 205.5-.3 312.4-1 319.7-2.1 21.8-7.3 41.1-14.6 54.3-5.3 9.6-16.9 20.8-26.4 25.4-13.3 6.5-26.9 8.9-47.5 8.3-13.9-.4-35.8-3.3-49-6.4-4.4-1.1-8.1-1.8-8.2-1.7-.4.3-.5 112.8-.1 113.1.8.7 19.5 4.6 28.8 5.9 27.6 4 63.8 4.5 89.5 1.1 78-10.2 129.2-53.7 151.9-128.8 4-13.3 7-27 9.9-46.2l2.1-14 .3-319.7.3-319.8-65.7-.2c-36.2-.2-66.8-.2-68 0z"/></svg>